<?xml version="1.0" standalone="no"?>
<!DOCTYPE svg PUBLIC "-//W3C//DTD SVG 20010904//EN"
 "http://www.w3.org/TR/2001/REC-SVG-20010904/DTD/svg10.dtd">
<svg version="1.0" xmlns="http://www.w3.org/2000/svg"
 width="512.000000pt" height="512.000000pt" viewBox="0 0 512.000000 512.000000"
 preserveAspectRatio="xMidYMid meet">

<g transform="translate(0.000000,512.000000) scale(0.100000,-0.100000)"
fill="#000000" stroke="none">
<path d="M117 4786 c-42 -16 -63 -30 -94 -66 -21 -23 -22 -35 -23 -176 0 -147
1 -152 26 -190 36 -54 74 -93 109 -112 25 -14 71 -18 259 -22 l230 -5 62 -325
c35 -179 119 -626 189 -995 232 -1235 228 -1216 290 -1352 23 -50 53 -92 97
-137 103 -105 -43 -97 1589 -94 1354 3 1415 4 1444 21 64 39 96 111 97 223 2
94 -29 151 -99 186 l-48 23 -1335 5 -1335 5 -32 205 c-17 113 -32 215 -32 227
l-1 23 1393 2 1392 3 67 33 c76 37 129 92 175 179 17 32 69 168 116 303 47
135 144 409 214 610 123 352 128 368 128 446 0 71 -3 85 -28 122 -30 46 -79
81 -153 108 -47 18 -126 19 -1856 22 l-1808 2 -5 23 c-3 12 -18 112 -35 222
-16 110 -38 230 -50 267 -34 111 -113 193 -207 217 -65 17 -688 14 -736 -3z
m2870 -1176 c1377 0 1453 -1 1452 -17 0 -10 -75 -216 -167 -458 l-167 -440
-1336 -3 -1335 -2 -87 452 c-48 249 -87 459 -87 467 0 12 23 13 137 8 75 -4
790 -7 1590 -7z"/>
<path d="M1551 1159 c-80 -15 -169 -65 -231 -128 -144 -147 -179 -345 -92
-525 146 -302 527 -370 762 -136 141 142 180 349 98 522 -99 207 -309 312
-537 267z"/>
<path d="M3665 1146 c-159 -40 -294 -171 -340 -330 -13 -43 -16 -84 -13 -150
3 -80 8 -101 40 -168 62 -131 190 -236 327 -268 33 -8 87 -11 138 -7 270 16
479 276 435 540 -46 272 -318 450 -587 383z"/>
</g>
</svg>
